<?xml version="1.0" encoding="iso-8859-1"?>
<!-- Generator: Adobe Illustrator 19.0.0, SVG Export Plug-In . SVG Version: 6.00 Build 0)  -->
<svg xmlns="http://www.w3.org/2000/svg" xmlns:xlink="http://www.w3.org/1999/xlink" version="1.1" id="Capa_1" x="0px" y="0px" viewBox="0 0 496.937 496.937" style="enable-background:new 0 0 496.937 496.937;" xml:space="preserve" width="512px" height="512px">
<g>
	<g>
		<g>
			<path d="M473.955,94.866l15.812-49.694c5.271-16.565-3.765-34.635-21.082-39.906l-10.541-3.765     c-16.565-5.271-34.635,3.765-39.906,20.329L395.65,94.866H25.202c-13.553,0-24.847,11.294-24.847,25.6     c0,76.8,0,275.576,0,351.624c0,13.553,11.294,24.847,24.847,24.847h446.494c13.553,0,24.847-11.294,24.847-24.847     c0-76.047,0-274.824,0-351.624C497.297,106.914,486.755,96.372,473.955,94.866z M482.238,119.714v46.682     c-3.012-1.506-6.776-2.259-9.788-2.259H452.12l17.318-54.212h3.012C477.72,109.925,482.238,114.443,482.238,119.714z      M432.544,27.102c3.012-9.035,12.8-14.306,21.082-11.294l10.541,3.765c9.035,3.012,13.553,12.8,11.294,21.082l-3.012,10.541     l-42.918-13.553L432.544,27.102z M425.014,51.949l42.165,13.553c-9.788,30.871-36.894,117.459-46.682,147.576l-42.165-13.553     L425.014,51.949z M414.473,226.631l-38.4,55.718l0.753-67.765L414.473,226.631z M15.414,120.466     c0-6.023,4.518-10.541,9.788-10.541h365.176l-17.318,54.212H25.202c-3.765,0-6.776,0.753-9.788,2.259V120.466z M482.238,472.09     c0,5.271-4.518,9.788-9.788,9.788H25.202c-5.271,0-9.788-4.518-9.788-9.788c0-100.894,0-180.706,0-282.353     c0-5.271,4.518-9.788,9.788-9.788h344.094l-6.776,22.588c0,0.753,0,1.506,0,2.259l-0.753,103.153     c0,3.012,2.259,6.023,5.271,7.529c3.012,0.753,6.776,0,8.282-3.012l57.976-84.329c0.753-0.753,0.753-1.506,0.753-2.259     l14.306-45.929h24.847c5.271,0,9.788,4.518,9.788,9.788C482.238,290.631,482.238,370.443,482.238,472.09z" fill="#e73d93"/>
			<path d="M92.967,396.796h310.965c4.518,0,7.529-3.012,7.529-7.529c0.753-4.518-3.012-7.529-6.776-7.529H92.967     c-4.518,0-7.529,3.012-7.529,7.529S88.45,396.796,92.967,396.796z" fill="#e73d93"/>
			<path d="M92.967,342.584h310.965c4.518,0,7.529-3.012,7.529-7.529c0.753-3.765-3.012-7.529-6.776-7.529H92.967     c-4.518,0-7.529,3.012-7.529,7.529S88.45,342.584,92.967,342.584z" fill="#e73d93"/>
			<path d="M188.591,284.608h120.471c4.518,0,7.529-3.012,7.529-7.529s-3.012-7.529-7.529-7.529H188.591     c-4.518,0-7.529,3.012-7.529,7.529S184.073,284.608,188.591,284.608z" fill="#e73d93"/>
			<path d="M113.297,287.619c-2.259-3.012-3.765-6.024-4.518-9.788l-18.824,2.259c1.506,9.788,4.518,16.565,9.788,21.835     c5.271,5.271,12.047,8.282,20.329,9.035v5.271h10.541v-5.271c9.035-1.506,16.565-5.271,21.835-10.541     c5.271-6.024,7.529-13.553,7.529-21.835c0-7.529-2.259-14.306-6.024-18.824c-4.518-5.271-12.047-9.035-23.341-12.047v-29.365     c4.518,2.259,7.529,6.024,9.035,11.294l18.071-2.259c-1.506-7.529-3.765-12.8-9.035-17.318     c-4.518-4.518-10.541-6.776-18.071-7.529v-6.776h-10.541v6.776c-8.282,0.753-15.059,3.765-19.576,9.035     c-5.271,5.271-7.529,12.047-7.529,19.576s2.259,14.306,6.776,19.576c4.518,5.271,11.294,9.788,21.082,12.047v30.118     C117.814,292.89,114.802,290.631,113.297,287.619z M120.073,243.949c-3.012-2.259-5.271-3.765-6.776-6.024     c-1.506-2.259-2.259-4.518-2.259-6.776c0-3.012,0.753-5.271,2.259-7.529c1.506-2.259,3.765-3.765,6.776-4.518V243.949z      M129.861,266.537h0.753c4.518,1.506,7.529,3.012,9.035,5.271c2.259,2.259,3.012,5.271,3.012,8.282     c0,3.765-1.506,6.776-3.765,9.035c-2.259,3.012-5.271,4.518-9.035,5.271V266.537z" fill="#e73d93"/>
			<path d="M120.073,429.925H92.967c-4.518,0-7.529,3.012-7.529,7.529s3.012,7.529,7.529,7.529h27.106     c4.518,0,7.529-3.012,7.529-7.529S124.591,429.925,120.073,429.925z" fill="#e73d93"/>
			<path d="M190.849,429.925h-27.106c-4.518,0-7.529,3.012-7.529,7.529s3.012,7.529,7.529,7.529h27.106     c4.518,0,7.529-3.012,7.529-7.529S195.367,429.925,190.849,429.925z" fill="#e73d93"/>
			<path d="M262.379,429.925h-27.106c-4.518,0-7.529,3.012-7.529,7.529s3.012,7.529,7.529,7.529h27.106     c4.518,0,7.529-3.012,7.529-7.529S266.144,429.925,262.379,429.925z" fill="#e73d93"/>
			<path d="M333.155,429.925H306.05c-4.518,0-7.529,3.012-7.529,7.529s3.012,7.529,7.529,7.529h27.106     c4.518,0,7.529-3.012,7.529-7.529S337.673,429.925,333.155,429.925z" fill="#e73d93"/>
			<path d="M404.685,429.925h-27.106c-4.518,0-7.529,3.012-7.529,7.529s3.012,7.529,7.529,7.529h27.106     c4.518,0,7.529-3.012,7.529-7.529S408.45,429.925,404.685,429.925z" fill="#e73d93"/>
		</g>
	</g>
</g>
<g>
</g>
<g>
</g>
<g>
</g>
<g>
</g>
<g>
</g>
<g>
</g>
<g>
</g>
<g>
</g>
<g>
</g>
<g>
</g>
<g>
</g>
<g>
</g>
<g>
</g>
<g>
</g>
<g>
</g>
</svg>
